<svg xmlns="http://www.w3.org/2000/svg" viewBox="0 0 1170 2532" width="1170" height="2532" font-family="Inter, sans-serif">
  <rect width="1170" height="2532" fill="#FFFFFF"/>
  
  
    <text x="70" y="92" font-family="Inter, sans-serif" font-size="46" font-weight="600" fill="#27374D">9:41</text>
    <g fill="#27374D">
      <rect x="960" y="60" width="46" height="30" rx="6"/>
      <rect x="1020" y="52" width="46" height="38" rx="6"/>
      <rect x="1080" y="44" width="60" height="34" rx="8"/>
    </g>
  <rect x="0" y="150" width="1170" height="1350" fill="#EDF1F5"/><rect x="0" y="270" width="1170" height="34" fill="#DDE4EC"/><rect x="0" y="540" width="1170" height="34" fill="#DDE4EC"/><rect x="0" y="810" width="1170" height="34" fill="#DDE4EC"/><rect x="0" y="1080" width="1170" height="34" fill="#DDE4EC"/><rect x="0" y="1350" width="1170" height="34" fill="#DDE4EC"/><rect x="120" y="150" width="30" height="1350" fill="#DDE4EC"/><rect x="400" y="150" width="30" height="1350" fill="#DDE4EC"/><rect x="680" y="150" width="30" height="1350" fill="#DDE4EC"/><rect x="960" y="150" width="30" height="1350" fill="#DDE4EC"/><rect x="200" y="410" width="150" height="110" rx="10" fill="#F6F8FB" stroke="#E6EAF0" stroke-width="3"/><rect x="520" y="490" width="150" height="110" rx="10" fill="#F6F8FB" stroke="#E6EAF0" stroke-width="3"/><rect x="820" y="390" width="150" height="110" rx="10" fill="#F6F8FB" stroke="#E6EAF0" stroke-width="3"/><rect x="150" y="790" width="150" height="110" rx="10" fill="#F6F8FB" stroke="#E6EAF0" stroke-width="3"/><rect x="560" y="870" width="150" height="110" rx="10" fill="#F6F8FB" stroke="#E6EAF0" stroke-width="3"/><rect x="880" y="810" width="150" height="110" rx="10" fill="#F6F8FB" stroke="#E6EAF0" stroke-width="3"/><rect x="300" y="1190" width="150" height="110" rx="10" fill="#F6F8FB" stroke="#E6EAF0" stroke-width="3"/><rect x="720" y="1270" width="150" height="110" rx="10" fill="#F6F8FB" stroke="#E6EAF0" stroke-width="3"/>
  <g transform="translate(560,780) scale(1.1)"><path d="M0,-60 C33,-60 60,-33 60,0 C60,40 0,90 0,90 C0,90 -60,40 -60,0 C-60,-33 -33,-60 0,-60 Z" fill="#A821B6"/><circle cx="0" cy="-2" r="22" fill="#fff"/></g>
  <path d="M560,860 L560,1180 L820,1180" stroke="#2FBF71" stroke-width="16" fill="none" stroke-linecap="round" stroke-dasharray="4 34"/>
  <rect x="70" y="1560" width="1030" height="900" rx="44" fill="#FFFFFF" stroke="#E6EAF0" stroke-width="3"/>
  <text x="120" y="1680" font-size="58" font-weight="600" fill="#27374D" text-anchor="start">Комфорт</text>
  <text x="1050" y="1680" font-size="58" font-weight="700" fill="#A821B6" text-anchor="end">650 ₸</text>
  <rect x="120" y="1720" width="700" height="24" rx="13" fill="#E6EAF0"/>
  <rect x="120" y="1820" width="460" height="200" rx="28" fill="#F7F0F9" stroke="#EAD3EF" stroke-width="3"/>
  <text x="160" y="1900" font-size="40" font-weight="600" fill="#27374D" text-anchor="start">Эконом</text>
  <text x="160" y="1960" font-size="46" font-weight="700" fill="#A821B6" text-anchor="start">500 ₸</text>
  <rect x="600" y="1820" width="460" height="200" rx="28" fill="#FFFFFF" stroke="#E6EAF0" stroke-width="3"/>
  <text x="640" y="1900" font-size="40" font-weight="600" fill="#27374D" text-anchor="start">Бизнес</text>
  <text x="640" y="1960" font-size="46" font-weight="700" fill="#27374D" text-anchor="start">1950 ₸</text>
  <rect x="120" y="2280" width="930" height="120" rx="60" fill="#A821B6" stroke="#A821B6" stroke-width="3"/>
  <text x="585" y="2358" font-size="48" font-weight="600" fill="#FFFFFF" text-anchor="middle">Заказать</text>

</svg>