<svg xmlns="http://www.w3.org/2000/svg" viewBox="0 0 1170 2532" width="1170" height="2532" font-family="Inter, sans-serif">
  <rect width="1170" height="2532" fill="#FFFFFF"/>
  
  
    <text x="70" y="92" font-family="Inter, sans-serif" font-size="46" font-weight="600" fill="#27374D">9:41</text>
    <g fill="#27374D">
      <rect x="960" y="60" width="46" height="30" rx="6"/>
      <rect x="1020" y="52" width="46" height="38" rx="6"/>
      <rect x="1080" y="44" width="60" height="34" rx="8"/>
    </g>
  <rect x="0" y="150" width="1170" height="2382" fill="#EDF1F5"/><rect x="0" y="270" width="1170" height="34" fill="#DDE4EC"/><rect x="0" y="746.4" width="1170" height="34" fill="#DDE4EC"/><rect x="0" y="1222.8" width="1170" height="34" fill="#DDE4EC"/><rect x="0" y="1699.1999999999998" width="1170" height="34" fill="#DDE4EC"/><rect x="0" y="2175.6" width="1170" height="34" fill="#DDE4EC"/><rect x="120" y="150" width="30" height="2382" fill="#DDE4EC"/><rect x="400" y="150" width="30" height="2382" fill="#DDE4EC"/><rect x="680" y="150" width="30" height="2382" fill="#DDE4EC"/><rect x="960" y="150" width="30" height="2382" fill="#DDE4EC"/><rect x="200" y="410" width="150" height="110" rx="10" fill="#F6F8FB" stroke="#E6EAF0" stroke-width="3"/><rect x="520" y="490" width="150" height="110" rx="10" fill="#F6F8FB" stroke="#E6EAF0" stroke-width="3"/><rect x="820" y="390" width="150" height="110" rx="10" fill="#F6F8FB" stroke="#E6EAF0" stroke-width="3"/><rect x="150" y="790" width="150" height="110" rx="10" fill="#F6F8FB" stroke="#E6EAF0" stroke-width="3"/><rect x="560" y="870" width="150" height="110" rx="10" fill="#F6F8FB" stroke="#E6EAF0" stroke-width="3"/><rect x="880" y="810" width="150" height="110" rx="10" fill="#F6F8FB" stroke="#E6EAF0" stroke-width="3"/><rect x="300" y="1190" width="150" height="110" rx="10" fill="#F6F8FB" stroke="#E6EAF0" stroke-width="3"/><rect x="720" y="1270" width="150" height="110" rx="10" fill="#F6F8FB" stroke="#E6EAF0" stroke-width="3"/>
  <g transform="translate(560,900) scale(1.1)"><path d="M0,-60 C33,-60 60,-33 60,0 C60,40 0,90 0,90 C0,90 -60,40 -60,0 C-60,-33 -33,-60 0,-60 Z" fill="#A821B6"/><circle cx="0" cy="-2" r="22" fill="#fff"/></g>
  <rect x="150" y="380" width="720" height="130" rx="65" fill="#A821B6" stroke="#A821B6" stroke-width="3"/>
  <text x="230" y="462" font-size="46" font-weight="600" fill="#fff" text-anchor="start">Әбілхайыр хан даңғ.</text>
  <rect x="280" y="640" width="700" height="130" rx="65" fill="#A821B6" stroke="#A821B6" stroke-width="3"/>
  <text x="360" y="722" font-size="46" font-weight="600" fill="#fff" text-anchor="start">Өтеген Сейітов көш.</text>
  <rect x="240" y="1120" width="640" height="130" rx="65" fill="#A821B6" stroke="#A821B6" stroke-width="3"/>
  <text x="320" y="1202" font-size="46" font-weight="600" fill="#fff" text-anchor="start">4-ші Орта мектебі</text>
  <rect x="760" y="2300" width="130" height="130" rx="65" fill="#fff" stroke="#E6EAF0" stroke-width="3"/>
  <text x="825" y="2378" font-size="60" font-weight="700" fill="#A821B6" text-anchor="middle">◎</text>

</svg>