<svg width="113" height="29" viewBox="0 0 113 29" fill="none" xmlns="http://www.w3.org/2000/svg">
<path d="M66.406 21.2588C66.406 16.7466 69.6967 13.547 74.2825 13.547C76.9561 13.547 79.1768 14.6608 80.3594 16.7739L78.3052 18.1164C77.3479 16.6322 75.8862 15.9461 74.2531 15.9461C71.3273 15.9461 69.1335 18.0319 69.1335 21.2588C69.1335 24.4857 71.3273 26.6014 74.2531 26.6014C75.8837 26.6014 77.3479 25.9152 78.3052 24.431L80.3594 25.7462C79.1768 27.8593 76.9561 29.0029 74.2825 29.0029C69.6967 29.0029 66.406 25.776 66.406 21.2613V21.2588Z" fill="#27374D"/>
<path d="M98.242 13.6887V28.8289H95.6541V26.4298C94.4446 28.1427 92.5324 29.0004 90.3362 29.0004C85.9756 29.0004 82.7976 25.8879 82.7976 21.2588C82.7976 16.6297 85.9756 13.547 90.3362 13.547C92.4467 13.547 94.3026 14.3475 95.5414 15.9759V13.6912H98.242V13.6887ZM95.5684 21.2588C95.5684 18.0319 93.4015 15.9461 90.5614 15.9461C87.7213 15.9461 85.5251 18.0319 85.5251 21.2588C85.5251 24.4857 87.6919 26.6014 90.5614 26.6014C93.4309 26.6014 95.5684 24.4882 95.5684 21.2588Z" fill="#27374D"/>
<path d="M112.045 13.547V16.2046C111.82 16.1773 111.624 16.1773 111.426 16.1773C108.53 16.1773 106.728 17.9772 106.728 21.2911V28.8314H104.027V13.6912H106.615V16.2345C107.572 14.4644 109.428 13.5495 112.045 13.5495V13.547Z" fill="#27374D"/>
<path d="M56.2111 13.547C53.8484 13.547 51.9362 14.4321 50.8369 15.9759V13.6912H48.2489V16.5875C49.5343 17.9971 50.3203 19.884 50.3203 21.9574C50.3203 24.0308 49.5343 25.9177 48.2489 27.3273V28.8314H50.9495V21.0326C50.9495 17.7485 52.8054 16.0057 55.6749 16.0057C58.2359 16.0057 59.6976 17.4626 59.6976 20.4334V28.8314H62.3982V20.1202C62.3982 15.6651 59.8372 13.5495 56.2086 13.5495L56.2111 13.547Z" fill="#27374D"/>
<path d="M11.03 21.9549C11.03 21.7883 11.0373 21.6243 11.0471 21.4627C8.36368 19.705 3.15352 20.6273 3.15352 17.9747C3.15352 16.7739 4.30671 15.8889 6.6694 15.8889C8.13109 15.8889 9.62215 16.2021 10.9737 17.0897L12.1269 14.9193C10.8317 14.0616 8.6379 13.547 6.69633 13.547C2.86951 13.547 0.479884 15.3743 0.479884 18.0891C0.479884 24.1153 9.90372 21.1743 9.90372 24.5727C9.90372 25.858 8.86315 26.6287 6.35846 26.6287C4.41689 26.6287 2.39207 25.9724 1.12626 25.0575L0 27.2279C1.23888 28.2273 3.68482 28.9979 6.16014 28.9979C9.24021 28.9979 11.4217 27.9463 12.2419 26.1936C11.4731 24.968 11.0275 23.5137 11.0275 21.9549H11.03Z" fill="#27374D"/>
<path d="M45.6409 24.968C44.3751 26.2682 42.2964 26.661 40.585 25.9425C38.9176 25.2415 37.8673 23.6181 37.8575 21.7311V21.577C37.904 19.7249 38.6042 18.2258 40.2863 17.3929C41.9952 16.5452 43.6895 16.6919 45.2222 17.8653C46.346 18.7255 46.8798 19.9287 46.9312 21.3483C46.9826 22.7305 46.6153 23.9661 45.6409 24.968ZM43.0358 13.9075C43.381 13.9274 43.381 13.9348 43.3027 13.5893C43.2929 13.5495 43.2806 13.5122 43.2708 13.4724C42.2401 9.62397 38.6679 7.19508 34.7431 7.68235C34.5277 7.7097 34.4371 7.65252 34.3881 7.43623C33.9523 5.52444 33.0292 3.89358 31.6067 2.56602C29.8512 0.925216 27.7824 0.0252585 25.3854 0.010342C21.8499 -0.00954651 18.3144 0.00536991 14.779 0.00536991V0.000397771H3.71962C3.29605 0.000397771 3.2936 0.00536991 3.39154 0.437946C3.71473 1.8923 4.36845 3.17511 5.40166 4.23169C6.87804 5.74073 8.64333 6.61086 10.7759 6.61086C14.2085 6.61086 17.6436 6.60588 21.0762 6.6034C21.1791 6.60091 21.2794 6.59594 21.3798 6.60588C21.6565 6.63323 21.8181 6.81223 21.8279 7.08818C21.8426 7.45612 21.6663 7.63014 21.2599 7.63014C18.8555 7.63014 16.4537 7.62766 14.0494 7.62766C13.4422 7.62766 12.8374 7.63014 12.2302 7.62517C12.0392 7.62269 11.9511 7.66246 12.0172 7.89118C12.8252 10.7601 14.6345 12.6296 17.4306 13.5271C18.3977 13.8379 19.4064 13.7981 20.3956 13.905C22.4669 14.1312 24.2493 14.9765 25.5347 16.6521C27.5326 19.2625 27.7113 22.119 26.4064 25.1072C26.2595 25.4428 26.2472 25.4379 26.6194 25.4379H31.4084C32.6914 25.4379 33.9743 25.4379 35.2548 25.4354C35.4042 25.4354 35.5878 25.4801 35.4507 25.2017C34.726 23.7424 34.4885 22.1886 34.6819 20.5726C34.9121 18.6658 35.7102 17.0399 37.1499 15.782C38.8393 14.3077 40.8396 13.7757 43.0358 13.9075ZM19.4309 16.8286C16.6104 16.8485 14.8279 19.0934 14.9014 21.7088C14.9724 24.2918 16.8919 26.2632 19.4554 26.2558C22.0531 26.2458 24.0045 24.2321 23.9971 21.5646C23.9923 18.8398 22.0458 16.8112 19.4309 16.8286Z" fill="url(#paint0_linear_45_8187)"/>
<defs>
<linearGradient id="paint0_linear_45_8187" x1="3.33887" y1="13.1491" x2="46.9359" y2="13.1491" gradientUnits="userSpaceOnUse">
<stop stop-color="#D11BE3"/>
<stop offset="1" stop-color="#3F54D6"/>
</linearGradient>
</defs>
</svg>
